<?xml version="1.0" standalone="no"?>
<!DOCTYPE svg PUBLIC "-//W3C//DTD SVG 20010904//EN"
 "http://www.w3.org/TR/2001/REC-SVG-20010904/DTD/svg10.dtd">
<svg version="1.0" xmlns="http://www.w3.org/2000/svg"
 width="200.000000pt" height="200.000000pt" viewBox="0 0 200.000000 200.000000"
 preserveAspectRatio="xMidYMid meet">
<metadata>
Created by potrace 1.11, written by Peter Selinger 2001-2013
</metadata>
<g transform="translate(0.000000,200.000000) scale(0.100000,-0.100000)"
fill="#000000" stroke="none">
<path d="M178 1044 c-15 -37 -13 -84 3 -84 5 0 8 15 7 33 -1 18 4 42 10 54 14
26 15 33 3 33 -5 0 -15 -16 -23 -36z"/>
<path d="M1090 1053 c-2 -24 -3 -56 -1 -73 1 -5 20 -9 44 -9 23 1 32 4 20 6
-13 2 -23 11 -23 18 0 8 -6 18 -14 22 -8 4 -16 19 -19 33 -4 24 -4 24 -7 3z"/>
<path d="M1272 1020 c0 -51 0 -53 9 -22 8 26 14 33 32 30 15 -2 22 -10 23 -26
2 -39 14 -38 14 1 0 37 -10 44 -57 38 -6 -1 -14 6 -16 16 -3 10 -5 -7 -5 -37z"/>
<path d="M1450 1060 c0 -5 5 -10 11 -10 5 0 7 5 4 10 -3 6 -8 10 -11 10 -2 0
-4 -4 -4 -10z"/>
<path d="M460 1015 c0 -25 4 -45 9 -45 6 0 8 17 6 38 -3 36 -3 36 13 16 10
-11 24 -31 32 -43 l16 -23 24 36 c30 44 42 46 35 6 -3 -17 -1 -30 5 -30 5 0
10 20 10 45 0 57 -17 58 -49 5 l-25 -40 -25 40 c-35 53 -51 52 -51 -5z"/>
<path d="M660 1008 c0 -36 3 -48 9 -38 6 8 7 18 4 23 -3 5 6 1 21 -8 15 -10
29 -15 32 -12 3 3 -4 11 -16 17 l-21 11 23 20 c22 20 22 20 1 10 -30 -15 -46
-14 -40 4 4 8 2 17 -3 20 -6 4 -10 -16 -10 -47z"/>
<path d="M744 1015 c-1 -25 3 -45 7 -45 5 0 9 7 9 17 0 15 2 14 20 -2 10 -9
26 -15 33 -12 8 3 20 0 26 -6 6 -6 11 -7 11 -1 0 5 -5 15 -10 20 -16 16 -2 41
23 40 28 -1 34 -33 10 -51 -10 -8 -13 -15 -6 -15 11 0 43 26 43 36 0 3 -5 14
-10 25 -19 34 -80 21 -80 -17 0 -27 -12 -31 -30 -9 -10 12 -9 16 4 21 9 3 16
11 16 16 0 6 -11 3 -25 -6 -24 -16 -25 -16 -25 9 0 14 -4 25 -8 25 -4 0 -8
-20 -8 -45z"/>
<path d="M1367 1045 c-4 -8 -2 -17 3 -20 5 -3 7 -11 5 -18 -7 -19 10 -39 30
-35 10 1 20 10 23 18 4 12 2 13 -9 3 -20 -19 -29 -16 -29 11 0 18 7 26 23 29
l22 4 -22 2 c-13 0 -23 6 -23 11 0 15 -17 12 -23 -5z"/>
<path d="M1198 1042 c-20 -4 -31 -32 -22 -56 7 -18 68 -23 79 -7 3 6 -9 7 -30
4 -23 -4 -35 -2 -35 6 0 6 15 11 34 11 29 0 33 3 29 19 -5 20 -27 29 -55 23z
m42 -22 c0 -5 -11 -10 -25 -10 -14 0 -25 5 -25 10 0 6 11 10 25 10 14 0 25 -4
25 -10z"/>
<path d="M1603 1042 c-26 -4 -39 -37 -23 -57 13 -16 70 -21 70 -7 0 5 -13 7
-30 4 -18 -3 -30 0 -30 7 0 6 15 11 34 11 26 0 34 4 32 16 -3 20 -25 31 -53
26z m37 -22 c0 -5 -11 -10 -25 -10 -14 0 -25 5 -25 10 0 6 11 10 25 10 14 0
25 -4 25 -10z"/>
<path d="M1698 1042 c-25 -3 -28 -8 -28 -39 0 -20 3 -33 7 -29 4 4 8 17 8 29
0 17 6 22 25 22 20 0 26 -6 29 -30 3 -25 4 -27 11 -10 9 24 2 52 -13 57 -7 2
-24 2 -39 0z"/>
<path d="M249 1033 c-1 -4 0 -18 1 -31 1 -12 -6 -36 -14 -54 -22 -43 -12 -48
13 -7 22 36 28 84 11 94 -5 3 -10 3 -11 -2z"/>
<path d="M630 1006 c0 -20 4 -35 8 -32 9 5 8 53 -1 63 -4 3 -7 -10 -7 -31z"/>
<path d="M1450 1003 c0 -20 3 -33 7 -29 10 9 11 66 1 66 -4 0 -8 -16 -8 -37z"/>
<path d="M1480 1003 c0 -47 14 -33 19 20 1 5 11 7 24 5 16 -2 23 -11 25 -30 2
-16 7 -28 11 -28 4 0 5 16 3 35 -4 33 -6 35 -43 35 -38 0 -39 -1 -39 -37z"/>
</g>
</svg>
